<?xml version="1.0" encoding="UTF-8"?>
<svg width="100pt" height="100pt" version="1.1" viewBox="0 0 100 100" xmlns="http://www.w3.org/2000/svg">
 <path d="m83.332 20h-66.664c-3.668 0-6.668 3-6.668 6.668v46.664c0 3.668 3 6.668 6.668 6.668h66.664c3.668 0 6.668-3 6.668-6.668v-46.664c0-3.668-3-6.668-6.668-6.668zm-50 13.332c3.6875 0 6.668 2.9844 6.668 6.668s-2.9805 6.668-6.668 6.668c-3.6836 0-6.6641-2.9844-6.6641-6.668s2.9805-6.668 6.6641-6.668zm13.336 33.336h-26.668v-6.6641c0-3.6836 2.9883-6.6641 6.668-6.6641l13.332-0.007813c3.6836 0 6.668 2.9844 6.668 6.668zm33.332 0h-26.668v-6.668h26.668zm0-13.336h-26.668v-6.6641h26.668zm0-13.332h-33.332v-6.668h33.332z"/>
</svg>
